<svg xmlns="http://www.w3.org/2000/svg" viewBox="0 0 520 370" width="520" font-family="Hiragino Sans, Hiragino Kaku Gothic ProN, Yu Gothic, Noto Sans JP, Meiryo, sans-serif">
<text x="276.0" y="26" text-anchor="middle" font-size="15" font-weight="700">図3-7　証券特性線（トヨタ自動車，2003年1月〜2007年12月）</text>
<line x1="276.0" y1="52" x2="276.0" y2="314" stroke="#bbb" stroke-width="1.2"/>
<line x1="84" y1="183.0" x2="468" y2="183.0" stroke="#bbb" stroke-width="1.2"/>
<rect x="84" y="52" width="384" height="262" fill="none" stroke="#222" stroke-width="1.5"/>
<circle cx="282.3" cy="119.1" r="3.2" fill="#2f5597" opacity="0.78"/>
<circle cx="214.1" cy="177.9" r="3.2" fill="#2f5597" opacity="0.78"/>
<circle cx="258.8" cy="204.6" r="3.2" fill="#2f5597" opacity="0.78"/>
<circle cx="402.3" cy="86.6" r="3.2" fill="#2f5597" opacity="0.78"/>
<circle cx="273.1" cy="149.3" r="3.2" fill="#2f5597" opacity="0.78"/>
<circle cx="350.9" cy="130.6" r="3.2" fill="#2f5597" opacity="0.78"/>
<circle cx="315.1" cy="198.5" r="3.2" fill="#2f5597" opacity="0.78"/>
<circle cx="251.6" cy="217.7" r="3.2" fill="#2f5597" opacity="0.78"/>
<circle cx="167.9" cy="266.2" r="3.2" fill="#2f5597" opacity="0.78"/>
<circle cx="264.5" cy="203.4" r="3.2" fill="#2f5597" opacity="0.78"/>
<circle cx="280.6" cy="238.9" r="3.2" fill="#2f5597" opacity="0.78"/>
<circle cx="270.7" cy="173.5" r="3.2" fill="#2f5597" opacity="0.78"/>
<circle cx="325.9" cy="185.2" r="3.2" fill="#2f5597" opacity="0.78"/>
<circle cx="249.4" cy="291.5" r="3.2" fill="#2f5597" opacity="0.78"/>
<circle cx="242.5" cy="304.6" r="3.2" fill="#2f5597" opacity="0.78"/>
<circle cx="181.7" cy="195.3" r="3.2" fill="#2f5597" opacity="0.78"/>
<circle cx="129.7" cy="245.0" r="3.2" fill="#2f5597" opacity="0.78"/>
<circle cx="297.8" cy="180.1" r="3.2" fill="#2f5597" opacity="0.78"/>
<circle cx="306.5" cy="135.6" r="3.2" fill="#2f5597" opacity="0.78"/>
<circle cx="345.5" cy="143.5" r="3.2" fill="#2f5597" opacity="0.78"/>
<circle cx="236.6" cy="235.6" r="3.2" fill="#2f5597" opacity="0.78"/>
<circle cx="210.4" cy="228.0" r="3.2" fill="#2f5597" opacity="0.78"/>
<circle cx="223.8" cy="167.8" r="3.2" fill="#2f5597" opacity="0.78"/>
<circle cx="402.4" cy="204.1" r="3.2" fill="#2f5597" opacity="0.78"/>
<circle cx="257.2" cy="217.8" r="3.2" fill="#2f5597" opacity="0.78"/>
<circle cx="386.1" cy="196.0" r="3.2" fill="#2f5597" opacity="0.78"/>
<circle cx="347.2" cy="165.2" r="3.2" fill="#2f5597" opacity="0.78"/>
<circle cx="265.7" cy="218.7" r="3.2" fill="#2f5597" opacity="0.78"/>
<circle cx="318.6" cy="203.6" r="3.2" fill="#2f5597" opacity="0.78"/>
<circle cx="270.8" cy="168.2" r="3.2" fill="#2f5597" opacity="0.78"/>
<circle cx="398.3" cy="206.8" r="3.2" fill="#2f5597" opacity="0.78"/>
<circle cx="377.4" cy="67.5" r="3.2" fill="#2f5597" opacity="0.78"/>
<circle cx="243.9" cy="189.0" r="3.2" fill="#2f5597" opacity="0.78"/>
<circle cx="245.0" cy="126.6" r="3.2" fill="#2f5597" opacity="0.78"/>
<circle cx="289.9" cy="181.1" r="3.2" fill="#2f5597" opacity="0.78"/>
<circle cx="260.8" cy="200.4" r="3.2" fill="#2f5597" opacity="0.78"/>
<circle cx="264.3" cy="229.2" r="3.2" fill="#2f5597" opacity="0.78"/>
<circle cx="412.8" cy="174.1" r="3.2" fill="#2f5597" opacity="0.78"/>
<circle cx="266.3" cy="170.4" r="3.2" fill="#2f5597" opacity="0.78"/>
<circle cx="262.4" cy="196.9" r="3.2" fill="#2f5597" opacity="0.78"/>
<circle cx="298.1" cy="121.2" r="3.2" fill="#2f5597" opacity="0.78"/>
<circle cx="246.2" cy="218.4" r="3.2" fill="#2f5597" opacity="0.78"/>
<circle cx="405.0" cy="67.6" r="3.2" fill="#2f5597" opacity="0.78"/>
<circle cx="210.5" cy="119.4" r="3.2" fill="#2f5597" opacity="0.78"/>
<circle cx="327.6" cy="172.3" r="3.2" fill="#2f5597" opacity="0.78"/>
<circle cx="197.9" cy="220.9" r="3.2" fill="#2f5597" opacity="0.78"/>
<circle cx="220.7" cy="267.4" r="3.2" fill="#2f5597" opacity="0.78"/>
<circle cx="189.9" cy="263.3" r="3.2" fill="#2f5597" opacity="0.78"/>
<circle cx="349.6" cy="149.9" r="3.2" fill="#2f5597" opacity="0.78"/>
<circle cx="179.7" cy="216.5" r="3.2" fill="#2f5597" opacity="0.78"/>
<circle cx="280.4" cy="139.1" r="3.2" fill="#2f5597" opacity="0.78"/>
<circle cx="355.9" cy="133.5" r="3.2" fill="#2f5597" opacity="0.78"/>
<circle cx="266.4" cy="189.5" r="3.2" fill="#2f5597" opacity="0.78"/>
<circle cx="200.6" cy="202.1" r="3.2" fill="#2f5597" opacity="0.78"/>
<circle cx="367.2" cy="110.0" r="3.2" fill="#2f5597" opacity="0.78"/>
<circle cx="260.2" cy="203.6" r="3.2" fill="#2f5597" opacity="0.78"/>
<circle cx="224.1" cy="253.4" r="3.2" fill="#2f5597" opacity="0.78"/>
<circle cx="249.4" cy="237.7" r="3.2" fill="#2f5597" opacity="0.78"/>
<circle cx="246.9" cy="273.1" r="3.2" fill="#2f5597" opacity="0.78"/>
<circle cx="299.3" cy="162.5" r="3.2" fill="#2f5597" opacity="0.78"/>
<line x1="84.0" y1="313.1" x2="468.0" y2="48.5" stroke="#c0392b" stroke-width="2.8"/>
<line x1="128.3" y1="314" x2="128.3" y2="319" stroke="#222" stroke-width="1.1"/>
<text x="128.3" y="334" font-size="12.5" text-anchor="middle">-10</text>
<line x1="79" y1="283.8" x2="84" y2="283.8" stroke="#222" stroke-width="1.1"/>
<text x="76" y="288.8" font-size="12.5" text-anchor="end">-10</text>
<line x1="202.2" y1="314" x2="202.2" y2="319" stroke="#222" stroke-width="1.1"/>
<text x="202.2" y="334" font-size="12.5" text-anchor="middle">-5</text>
<line x1="79" y1="233.4" x2="84" y2="233.4" stroke="#222" stroke-width="1.1"/>
<text x="76" y="238.4" font-size="12.5" text-anchor="end">-5</text>
<line x1="276.0" y1="314" x2="276.0" y2="319" stroke="#222" stroke-width="1.1"/>
<text x="276.0" y="334" font-size="12.5" text-anchor="middle">0</text>
<line x1="79" y1="183.0" x2="84" y2="183.0" stroke="#222" stroke-width="1.1"/>
<text x="76" y="188.0" font-size="12.5" text-anchor="end">0</text>
<line x1="349.8" y1="314" x2="349.8" y2="319" stroke="#222" stroke-width="1.1"/>
<text x="349.8" y="334" font-size="12.5" text-anchor="middle">5</text>
<line x1="79" y1="132.6" x2="84" y2="132.6" stroke="#222" stroke-width="1.1"/>
<text x="76" y="137.6" font-size="12.5" text-anchor="end">5</text>
<line x1="423.7" y1="314" x2="423.7" y2="319" stroke="#222" stroke-width="1.1"/>
<text x="423.7" y="334" font-size="12.5" text-anchor="middle">10</text>
<line x1="79" y1="82.2" x2="84" y2="82.2" stroke="#222" stroke-width="1.1"/>
<text x="76" y="87.2" font-size="12.5" text-anchor="end">10</text>
<text x="468" y="354" font-size="13.5" text-anchor="end">市場の超過リターン Z<tspan font-size="10" dy="3">M</tspan><tspan dy="-3">(t)　(%)</tspan></text>
<text x="28" y="44" font-size="13.5">Z<tspan font-size="10" dy="3">i</tspan><tspan dy="-3">(t)　(%)</tspan></text>
<text x="100" y="78" font-size="14" fill="#c0392b" font-weight="700">傾き = β = 1.01</text>
</svg>
